<svg id="Layer_1" data-name="Layer 1" xmlns="http://www.w3.org/2000/svg" viewBox="0 0 546.78 134.96"><defs><style>.cls-1{fill:#ef7b42;}.cls-2{fill:#0353a4;}.cls-3{fill:#243460;}</style></defs><path class="cls-1" d="M142.68,187.94c-.81-.84-2.75-1.44-3.47-1.81-3.52-1.85-6.75-4.15-10.12-6.24a1.11,1.11,0,0,0-1.65.2,24.59,24.59,0,0,1-3.53,3.31,1.63,1.63,0,0,1-1.39.38c-2-.53-2-.53-2.1-2.7a1.15,1.15,0,0,0-.16-.77q.12-9.7.23-19.42a14.15,14.15,0,0,1,3.56-.19,31.93,31.93,0,0,0,5.26-.25l-3.42-3a7.22,7.22,0,0,0-1.43-1.33,54,54,0,0,1-4.14-3.54c-1.87-1.93-3.91-3.65-5.94-5.39-1.67-1.77-3.67-3.17-5.36-4.91-.79-.81-1.2-.62-1.91,0-5,4.52-9.79,9.37-14.91,13.81a37,37,0,0,0-3.87,3.64c-.22.25-.65.51-.53.84s.68.26,1,.27c2.27,0,4.55.07,6.82,0,.82,0,1.18.21,1.16,1.1,0,2.16,0,4.31,0,6.47,0,1.1-1.4,1.54-2.19,2.07a25.21,25.21,0,0,0-3.68,2.48c-1.05.71-3.17,1.5-3.18,3,0,2.39-.09,4.77-.14,7.16-.15,7.89-.24,15.78-.21,23.68,0,2.08.95,2.14,2.84,2.7a38.47,38.47,0,0,0,7.45,1.36,50.9,50.9,0,0,0,15.17-1.09c6.46-1.42,12.17-4.47,17.64-8.06a37.07,37.07,0,0,0,8.67-7.91,1.35,1.35,0,0,0,.66-.75,1.93,1.93,0,0,0,.68-.89,13.48,13.48,0,0,1,1.41-1.79c.35-.5,1.14-1.1,1.11-1.75A1,1,0,0,0,142.68,187.94Zm-23-4.66h0a2.34,2.34,0,0,0,.09-.24A2.34,2.34,0,0,1,119.73,183.28Z" transform="translate(-51.56 -91.46)"/><path class="cls-2" d="M224.11,156.51c0-5.07,0-10.15.07-15.22,0-.46,0-.91,0-1.37a21.41,21.41,0,0,0-.06-3.49c0-.14,0-.19-.15-.19a1.32,1.32,0,0,0-.33-.08c-5.32,0-10.63,0-15.95,0-.78,0-.77.42-.78.93,0,2.19,0,4.39-.05,6.58,0,.28.2.69-.15.84s-.59-.25-.82-.48c-8.47-8.44-18.69-11-30.11-8.32s-19.33,10.16-23.94,20.85a38.86,38.86,0,0,0-2.1,23.73c3.73,18,19.24,29.85,36.27,28.49,8.06-.64,14.9-3.75,20.15-10,.19-.22.36-.62.7-.48s.19.54.19.84c0,2.39.06,4.77.05,7.16,0,.62.15.91.84.89,1.85,0,3.7,0,5.54,0a1.76,1.76,0,0,0,.52.17c3.24,0,6.48,0,9.71,0,1.06-.19.56-1,.56-1.54C224.24,189.35,224.16,172.93,224.11,156.51Zm-24.67,31.67a1.37,1.37,0,0,0-.23.25l-.24.16-.44.3-.47.29-.25.17a25.33,25.33,0,0,1-4.71,2.07,20.37,20.37,0,0,1-13.77-.62c-7-2.94-10.59-8.49-11.87-15.64a19.91,19.91,0,0,1,37.45-12.49A20.72,20.72,0,0,1,199.44,188.18Z" transform="translate(-51.56 -91.46)"/><path class="cls-2" d="M324,135.24a35.11,35.11,0,0,0-23.5,4.18c-9.8,5.7-16.2,14-18.13,25.37a37,37,0,0,0,3.32,23.77c6.06,11.78,15.83,18.55,28.92,20.11A36.64,36.64,0,0,0,339.22,203a33.78,33.78,0,0,0,10.08-9.84c.49-.73.45-1.09-.41-1.52-3.19-1.61-6.33-3.31-9.48-5-.88-.47-1.77-1.47-2.56-1.39s-1.63,1.15-2.4,1.83a22,22,0,0,1-21.9,4.92c-6-1.76-10.16-5.7-11.78-12-.56-2.16-.57-2.16,1.7-2.1h.23c8.24.15,16.49.22,24.73.05h11.79c4.24,0,8.47.16,12.71-.06,2-.1,2.08-.08,2.28-2.11a38.84,38.84,0,0,0-5.5-24.76C343,142,334.6,136.84,324,135.24Zm10.71,29.4c-6.31-.26-12.63,0-19-.1-4.43,0-8.86,0-13.29,0-2.15,0-2.16,0-1.48-2a18.29,18.29,0,0,1,12.49-12.08,15.86,15.86,0,0,1,5.17-.64,17,17,0,0,1,17.25,13.38C336.18,164.54,336.11,164.7,334.73,164.64Z" transform="translate(-51.56 -91.46)"/><path class="cls-2" d="M414,138.55c-6.35-3.4-13.25-4.05-20.29-3.65a26.26,26.26,0,0,0-9.06,2,2.24,2.24,0,0,0-.45.09,34.83,34.83,0,0,0-17.76,14.22,37.34,37.34,0,0,0-5.6,27,35.87,35.87,0,0,0,3.93,11.7c-.06.38.22.57.44.79a.07.07,0,0,0,0,.12c.06.1.12.19.17.29h0a27.11,27.11,0,0,0,6.85,8.63c8.57,7,18.39,10.2,29.49,8.91s20.14-6,26.35-15.56c.31-.48.42-.73-.19-1-1.06-.54-2.07-1.18-3.11-1.75-3-1.64-6.18-2.93-9-4.85-.57-.39-.76-.41-1.25.11a22,22,0,0,1-19.08,7.27c-5.21-.51-10-2.33-13.4-6.63a15,15,0,0,1-3.19-7.9l.23-.19,3.07-.12a1.64,1.64,0,0,0,1.51,0,7.06,7.06,0,0,0,2.2,0c.25.27.58.16.87.15a69.11,69.11,0,0,0,7.34-.14c.27,0,.53.07.8.07l34.41,0a11,11,0,0,0,1.14-.11,2.77,2.77,0,0,0,1.37-.08c1,.11.88-.68.94-1.24a45.73,45.73,0,0,0-1.11-15.47C429.17,150.92,423.16,143.46,414,138.55Zm0,26c-2.27-.18-4.53,0-6.79,0-6.24,0-12.47,0-18.71,0-.42,0-.84,0-1.27,0-2.3,0-4.6,0-6.9-.07-.6,0-1.39.11-1.47-.86.33-1,.67-2,1-3l1-1.8a23.67,23.67,0,0,1,4.34-5,22.38,22.38,0,0,1,6.71-3.41.66.66,0,0,0,.58-.19l.35,0a.66.66,0,0,0,.61-.18l.55-.05c3.75-.45,7.48-.4,11,1.24,5.24,2.47,8.7,6.42,9.92,12.21C415,164.45,414.57,164.57,414,164.52Z" transform="translate(-51.56 -91.46)"/><path class="cls-2" d="M279.34,136c0-.62-.3-.81-.92-.84a50.42,50.42,0,0,0-7.27,0,22.42,22.42,0,0,0-16,8.89c-.23.29-.42.75-.87.64s-.32-.64-.33-1c-.1-2.27-.21-4.54-.24-6.81,0-.81-.31-1-1.09-1q-7.56.12-15.13.13c-.84,0-1,.26-1,1q.09,6.47.1,12.93.06,27.72.1,55.44c0,.54,0,1.07.06,1.61.11.31.37.21.58.21l16.49,0c.18,0,.39,0,.49-.19,0-.5.07-1,.07-1.49-.05-12.2-.13-24.41.19-36.61a19.92,19.92,0,0,1,2.64-9.56c3.34-5.8,10.26-8.24,16-7.67,1.87.19,3.75.36,5.62.59.6.07.77,0,.76-.69,0-4.81,0-9.62-.07-14.44C279.42,136.87,279.35,136.45,279.34,136Z" transform="translate(-51.56 -91.46)"/><path class="cls-2" d="M133.33,119.35l-.22-.17-.46-.32a31.62,31.62,0,0,0-4.88-3.13l-.21-.08a1.88,1.88,0,0,1-.23-.16.19.19,0,0,0-.2-.08l-.27-.18a24.34,24.34,0,0,0-5.1-2.29l-.22,0c-.17-.08-.34-.18-.51-.25a55.25,55.25,0,0,0-22.36-2.83,51.26,51.26,0,0,0-23.15,7l-.27.18a.2.2,0,0,0-.2.09l-.22.16-.31.2a.11.11,0,0,0-.15.07l-.27.18-.2.09-.21.15-.48.3-.22.17-.3.21a.14.14,0,0,0-.17.08l-.23.17-.25.19a1.21,1.21,0,0,0-.68.49l-.27.2a36,36,0,0,0-9,9A32,32,0,0,0,57,137.14a22,22,0,0,0-1.75,3.63l-.55.81c-.23,1-.43,1.9-.63,2.79-.15.52-.3,1-.44,1.58,0,.15-.19.46,0,.68-.08.37-.15.73-.22,1.08-.1,0-.18.15-.23.39a50.67,50.67,0,0,0-1,6.92,38.35,38.35,0,0,0-.48,6.64c-.2.29,0,.78.11,1.09l0,.11a23.7,23.7,0,0,1,.43,3.17c.18,1.1.38,2.2.64,3.28a18.5,18.5,0,0,0,2,5.46c.82,1.37,1.5.49,2.43-.2,1.26-.94,2.68-1.64,3.92-2.61,3-2.3,6.19-4.24,9.1-6.65a3.65,3.65,0,0,0,1.38-4c-2-10.78,6.19-20.79,6.19-20.79a24.43,24.43,0,0,1,3.52-3.94c.36-.28.73-.55,1.09-.85a30.81,30.81,0,0,1,17.3-7.37c10-.82,18.77,1.85,26,9.06.79.79,1.65,1.5,2.47,2.26a.54.54,0,0,0,.85.06c4.14-3.12,8.28-6.24,12.49-9.28a1.34,1.34,0,0,0,.42-2.16A31.32,31.32,0,0,0,133.33,119.35Z" transform="translate(-51.56 -91.46)"/><path class="cls-1" d="M593.29,202.26c-1.15,1-1.87.56-2.72-.27a7.68,7.68,0,0,0-1-.72c-11.37-7.58-23.08-14.62-34.67-21.86a13.68,13.68,0,0,1-3.34-2.61c-2.73-3.22-5.42-6.47-8.1-9.74-.37-.45-1.13-.94-.78-1.53s1.21-.26,1.81-.17c4.2.65,8.33,1.6,12.47,2.57q11.57,2.72,23.09,5.6c1,.26,1.65.58,1.94,1.71a3.42,3.42,0,0,0,3.9,2.32,3.51,3.51,0,0,0-.36-6.87c-1.22-.23-3.4.58-3.66,1.53s-.67.92-1.38.63a8.52,8.52,0,0,0-1.23-.31c-11.34-2.89-22.69-5.82-34.24-7.72a9.49,9.49,0,0,1-6.89-4.26,4.94,4.94,0,0,0-.58-.72c-.59-.57-.62-1.11,0-1.64l.28-.26a.16.16,0,0,0,.15-.08c1.07-.08,2.14-.21,3.22-.22,6.32,0,12.63-.09,18.95-.08,5.39,0,10.78.09,16.18.15.61,0,1.23,0,1.84.07a7.37,7.37,0,0,0,.16.79,3.31,3.31,0,0,0,3.92,2.35,3.54,3.54,0,0,0,2.67-3.33,3.87,3.87,0,0,0-3.25-3.39,3.07,3.07,0,0,0-3.48,2.74c-5.68-.05-11.36,0-17-.17-6.91-.16-13.82-.28-20.73,0-.45,0-1,.25-1.23-.48,2.25-2.46,4.26-5.14,6.65-7.48a6.84,6.84,0,0,0,3.39-.19c4.56-.78,9.13-1.53,13.69-2.36,4.28-.78,8.51-1.83,12.82-2.49a25.08,25.08,0,0,0,5.48-1.14c.91,0,1,.88,1.38,1.36a3,3,0,0,0,3.72.8,3.48,3.48,0,0,0,1.78-4,3.25,3.25,0,0,0-3.4-2.19c-2.19.29-3.12,1.22-3.45,3.45a1.43,1.43,0,0,0-.45-.06c-4.91,1-9.86,1.78-14.8,2.67-6.16,1.11-12.29,2.32-18.44,3.48-.44.08-.85.14-1-.41,1-1.3,1.9-2.61,2.89-3.89a23.52,23.52,0,0,1,5.51-5.53c2.76-1.83,5.64-3.45,8.52-5.07,9.28-5.2,18.34-10.77,27.51-16.15.34-.2.78-.41.46-.86s-.63,0-.88.17q-4.23,2.58-8.45,5.2c-8.57,5.3-17.37,10.2-26.07,15.28a.73.73,0,0,1-.39-.71c1.85-1.9,3.47-4,5.14-6,3.81-4.67,7.74-9.24,11.59-13.88,1.21-1.45,2.33-3,3.56-4.56-7.32,0-14.44.11-21.55-.06a6.12,6.12,0,0,0-5.57,2.59c-1.94,2.52-4.11,4.88-6.18,7.3-.75-.08-.48-.68-.49-1.07-.09-5.74-.16-11.49-.24-17.23,0-1-.09-1.91-.14-2.86h-.47c0,.77,0,1.53,0,2.3,0,2.34.08,4.69,0,7-.18,4.21-.21,8.42,0,12.63a2.79,2.79,0,0,1-.74,1.76c-4.07,5-8,10.07-12.47,14.78-.44.47-.76,1.07-1.37,1.37-.41-.2-.29-.59-.29-.91-.07-3.49-.14-7-.17-10.46,0-4.33-.05-8.67-.07-13,.17-3.85-.06-7.7-.06-11.54,0-.22,0-.56-.22-.61a3.12,3.12,0,0,0,3-3.17,3.33,3.33,0,0,0-3.24-3.46,3.18,3.18,0,0,0-3.39,3.26,3.28,3.28,0,0,0,3.19,3.39l.32,0c-.27.08-.13.39-.12.61a.19.19,0,0,0,0,.19c-.07,3.78-.1,7.56,0,11.34a3.5,3.5,0,0,0-.07.45q0,11.8,0,23.62a1.17,1.17,0,0,0,.21.87v.47c-3.7,5-7.58,9.85-11.58,14.6-.49.59-.77,1.58-1.85,1.48,0-14.6,0-29.2-.26-43.79,0-.38.25-.84-.22-1.14-6.31,0-12.61,0-18.92-.07-.61,0-.79.2-.79.79q0,8.13,0,16.26a78.17,78.17,0,0,0-.11,9.31v.74h0v1.11l0,17.83a.2.2,0,0,0,0,.21V166a.72.72,0,0,1,.15.32,1,1,0,0,0-.15-.32,3.41,3.41,0,0,0-.05.46q0,19,0,38a4.7,4.7,0,0,0,.2,2.57,7,7,0,0,0,.79.08q9.09,0,18.18.06a6.91,6.91,0,0,0,.9-.11,5.81,5.81,0,0,0,0-2.78v-1.57c0-1.69,0-3.39,0-5.08,0-.63.05-1.26.08-1.88a28.26,28.26,0,0,0,0-4.78h0c0-1.44-.05-2.88-.08-4.32,0-.11.07-.21.1-.32v-.5l0-13.47a1.42,1.42,0,0,0-.15-.42q0,6,0,12.07c-.34,0-.41.25-.45.55,0-.3.11-.52.45-.55q0-6,0-12.07v-3.36a2,2,0,0,1,.1-.26c0-2.34.07-4.68.11-7a.2.2,0,0,0,0-.08.2.2,0,0,1,0,.08l.08,0,0-.08h.39c2,2.19,4.12,4.32,6,6.6,2.14,2.55,4.1,5.26,6.18,7.87a2.23,2.23,0,0,1,.55,1.89,1.85,1.85,0,0,0-.18,1.22c0,3.83-.14,7.66.07,11.49,0,.38-.08.76-.09,1.14l0,26.69c0,.58,0,1.15-.06,1.73-2.28.44-3.4,1.65-3.22,3.46a3.41,3.41,0,0,0,2.61,3,3.5,3.5,0,0,0,4-1.86,3.13,3.13,0,0,0-.81-3.65,7.05,7.05,0,0,0-1.82-1c0-5.29,0-10.59,0-15.88,0-4.56,0-9.13-.06-13.69q.1-6.12.2-12.23c.57-1,.84,0,1,.23,3.66,4.23,7.32,8.46,10.9,12.75a32.53,32.53,0,0,1,3.61,4.57,2.89,2.89,0,0,0-.42,1.65c-.06,5.23-.13,10.45-.17,15.68,0,1.68,0,3.37.06,5.05l-.78.19a2.87,2.87,0,0,0-2.42,2.68,3.26,3.26,0,0,0,1.94,3.23,3.45,3.45,0,0,0,3.73-.68c1.84-1.93,1-4.57-1.66-5.41-.15-7,0-14,.18-20.94,0-.33,0-.62.48-.62,2.18,2.58,4.38,5.16,6.54,7.75,2.57,3.09,2.56,3.1,6.63,3a1,1,0,0,0,.77.14L576,207.2c.09,0,.18-.09.25-.12s0-.13,0-.16c-5.39-6.83-10.69-13.74-16.45-20.28a35.56,35.56,0,0,1-4.26-5.36c.4-1,1-.35,1.42-.1,6.35,4,12.79,7.78,19,12,4.85,3.26,9.79,6.4,14.7,9.57.72.47,1.37.87.69,1.85a1.37,1.37,0,0,0-.08,1,3.72,3.72,0,0,0,2.7,3,3.77,3.77,0,0,0,3.68-2.09,2.88,2.88,0,0,0-.72-3.47C595.82,202,594.16,201.5,593.29,202.26Zm-8.14-30.67a2.26,2.26,0,0,1,2.46,2.53,2.67,2.67,0,0,1-2.52,2.62c-1.73,0-2.75-1.17-2.72-3.12C582.38,172.39,583.5,171.57,585.15,171.59ZM581.24,155a2.62,2.62,0,1,1,.21,5.24,2.62,2.62,0,0,1-2.72-2.66A2.49,2.49,0,0,1,581.24,155ZM585,139.48a2.09,2.09,0,0,1,2.33,2.35,2.82,2.82,0,0,1-2.56,2.65,2.86,2.86,0,0,1-2.42-3C582.36,140.29,583.42,139.47,585,139.48Zm-62.1-39.22C522.9,99,524,98,525.58,98s2.53.77,2.51,2.29a2.21,2.21,0,0,1-2.45,2.29A2.51,2.51,0,0,1,522.92,100.26Zm-9.89,60a3.4,3.4,0,0,0-.09-1A3.48,3.48,0,0,1,513,160.22Zm15,63a2.5,2.5,0,0,1-2.53,2.45,2.73,2.73,0,0,1-2.76-2.55,2.65,2.65,0,0,1,2.36-2.3A2.53,2.53,0,0,1,528.06,223.25ZM543.73,221a2.38,2.38,0,0,1-2.5,2.52,2.31,2.31,0,0,1-2.53-2.35c0-1.28,1.11-2.16,2.72-2.17S543.73,219.61,543.73,221Zm-17.1-80.4c.18.18.33.23.46.2a.67.67,0,0,0,.25-.13.67.67,0,0,1-.25.13.55.55,0,0,1-.46-.2,2.3,2.3,0,0,1-.43.18A2.77,2.77,0,0,0,526.63,140.62Zm67.62,67.21a2.56,2.56,0,0,1-2.35-2.38c0-1,1.51-2.37,2.7-2.41a2.14,2.14,0,0,1,2.36,2.22A2.83,2.83,0,0,1,594.25,207.83Z" transform="translate(-51.56 -91.46)"/><path class="cls-1" d="M245.66,127.46a9.68,9.68,0,1,0-.19-19.36,9.67,9.67,0,0,0-9.25,9.26C236.18,122.52,240.79,127.45,245.66,127.46Z" transform="translate(-51.56 -91.46)"/><path class="cls-3" d="M66.15,183.08c-.12-1.13-.08-2.28-.12-3.42-.11,0-.24,0-.31.06-2.35,1.73-4.69,3.48-7,5.19-.34.25-.25.38-.07.62,2.29,3.09,4.09,6.55,7,9.19,0,0,.12-.09.12-.15C65.86,190.75,66.56,186.94,66.15,183.08Zm-1.5,6.31c-.14.94-1,.89-1.77,1.32a3.52,3.52,0,0,1,.79-1.86c.18-.29.45-.59.84-.39S64.7,189.07,64.65,189.39Z" transform="translate(-51.56 -91.46)"/><path class="cls-3" d="M66.05,179.66h0v0Z" transform="translate(-51.56 -91.46)"/><path class="cls-2" d="M76.77,203.94a12.09,12.09,0,0,0-1.89-1.14c-.62-.4-1.22-.81-1.82-1.24a41.9,41.9,0,0,1-3.54-2.84q-1.69-1.51-3.25-3.18c-3-3.28-6.19-6.43-8.29-10.46,3.34-2.45,6.81-4.72,10-7.41,1.34-1.12,3-1.9,4.18-3.16a22,22,0,0,1,4.64-3.29c0,4.35-.08,8.71-.1,13.06,0,1.58-.43,3-.28,4.56.2,2,.34,4.06.35,6.1Z" transform="translate(-51.56 -91.46)"/><path class="cls-2" d="M67.44,189.78a.93.93,0,0,0-.8,1c-.09,1.45-.23,2.91-.39,4.35a.65.65,0,0,0,.16.62l3.66,3.46c0-2.68,0-5.13,0-7.57C70,189.06,70,189.09,67.44,189.78Z" transform="translate(-51.56 -91.46)"/><path class="cls-1" d="M594.38,117.72a4.08,4.08,0,0,0,4-3.74,3.49,3.49,0,0,0-7-.09C591.38,115.75,593,117.74,594.38,117.72Zm.6-6.2a2.32,2.32,0,0,1,2.57,2.44,3.07,3.07,0,0,1-2.88,2.76c-1.15,0-2.5-1.63-2.48-3C592.2,112.52,593.49,111.52,595,111.52Z" transform="translate(-51.56 -91.46)"/><path class="cls-1" d="M541.67,98.08l.27-.21c1.51,0,2.14-1,2.54-2.24a3.18,3.18,0,0,0-1.81-3.9,3.35,3.35,0,0,0-4.21,1.37c-.81,1.5-.42,3.55,1.17,4.17s1.68,1.6,1.59,2.91a1,1,0,0,0,0,.23h.47A5.71,5.71,0,0,0,541.67,98.08Zm-2.95-3.48a2.66,2.66,0,0,1,2.8-2.21c1.54,0,2.21.79,2.2,2.44,0,1.47-.78,2.31-2.11,2.3A2.71,2.71,0,0,1,538.72,94.6Z" transform="translate(-51.56 -91.46)"/><path class="cls-2" d="M484.26,136.45c.15-.79-.24-1.07-1-1.19-3.14-.51-6.25,0-9.36.3a8.72,8.72,0,0,0-.89.16c-5.34,1.5-10,4-13.06,8.85-.14.22-.26.56-.57.47s-.26-.5-.27-.78a71.9,71.9,0,0,0-.24-7.34c.15-.56-.06-.74-.64-.74q-8,0-15.93,0c-.53,0-.76.16-.76.72,0,2.84,0,5.69,0,8.53q0,10.41,0,20.81c-.28.38-.14.82-.13,1.23q0,9.57.13,19.14c.06,5.92.14,11.83.21,17.75,0,.19,0,.38,0,.57,0,2.32,0,2.32,2.34,2.19,4.42.17,8.85.18,13.27.12,2.19,0,2.2,0,2.2-2.21,0-11.93.05-23.85,0-35.78a17.54,17.54,0,0,1,4.76-12.7l.61-.56.19-.17,0,0,.24-.2h0l.24-.21.29-.23a.15.15,0,0,0,.17-.1l.21-.16h0l.28-.2a.18.18,0,0,0,.19-.09l.22-.16h0l.26-.18h0c.16-.09.32-.18.47-.28a.19.19,0,0,0,.2-.07l.25-.16.22-.09.22-.14a.51.51,0,0,0,.48-.23h.11l.1-.06.95-.41h.11l.1,0,.48-.19H471l.1-.05A19.3,19.3,0,0,1,479,152l4.44.61c.35.05.79.28.78-.42,0-3.07.14-6.14,0-9.21A53.9,53.9,0,0,0,484.26,136.45Z" transform="translate(-51.56 -91.46)"/></svg>